<mxfile host="app.diagrams.net" modified="2021-05-08T02:44:35.566Z" agent="5.0 (Macintosh; Intel Mac OS X 10_15_7) AppleWebKit/537.36 (KHTML, like Gecko) Chrome/90.0.4430.93 Safari/537.36" etag="fb6eqlD7IupyE5QQ4OfB" version="14.6.11" type="github">
  <diagram name="Page-1" id="e7e014a7-5840-1c2e-5031-d8a46d1fe8dd">
    <mxGraphModel dx="946" dy="1440" grid="1" gridSize="10" guides="1" tooltips="1" connect="1" arrows="1" fold="1" page="1" pageScale="1" pageWidth="1169" pageHeight="826" background="#ffffff" math="0" shadow="0">
      <root>
        <mxCell id="0" />
        <mxCell id="1" parent="0" />
        <mxCell id="q8u4ROkR2KheRBBQTvoT-43" style="rounded=0;orthogonalLoop=1;jettySize=auto;html=1;" edge="1" parent="1" source="q8u4ROkR2KheRBBQTvoT-41" target="q8u4ROkR2KheRBBQTvoT-42">
          <mxGeometry relative="1" as="geometry" />
        </mxCell>
        <mxCell id="q8u4ROkR2KheRBBQTvoT-66" value="" style="edgeStyle=none;rounded=0;orthogonalLoop=1;jettySize=auto;html=1;entryX=0;entryY=0.5;entryDx=0;entryDy=0;" edge="1" parent="1" source="q8u4ROkR2KheRBBQTvoT-41" target="q8u4ROkR2KheRBBQTvoT-67">
          <mxGeometry relative="1" as="geometry">
            <mxPoint x="135" y="110" as="targetPoint" />
          </mxGeometry>
        </mxCell>
        <mxCell id="q8u4ROkR2KheRBBQTvoT-41" value="RD" style="shape=umlActor;verticalLabelPosition=bottom;verticalAlign=top;html=1;" vertex="1" parent="1">
          <mxGeometry x="120" y="190" width="30" height="60" as="geometry" />
        </mxCell>
        <mxCell id="q8u4ROkR2KheRBBQTvoT-42" value="加入埋点" style="ellipse;whiteSpace=wrap;html=1;" vertex="1" parent="1">
          <mxGeometry x="160" width="80" height="60" as="geometry" />
        </mxCell>
        <mxCell id="q8u4ROkR2KheRBBQTvoT-44" value="Extends" style="endArrow=block;endSize=16;endFill=0;html=1;entryX=1;entryY=0.5;entryDx=0;entryDy=0;exitX=0;exitY=1;exitDx=0;exitDy=0;" edge="1" parent="1" source="q8u4ROkR2KheRBBQTvoT-45" target="q8u4ROkR2KheRBBQTvoT-42">
          <mxGeometry width="160" relative="1" as="geometry">
            <mxPoint x="330" as="sourcePoint" />
            <mxPoint x="340" y="160" as="targetPoint" />
          </mxGeometry>
        </mxCell>
        <mxCell id="q8u4ROkR2KheRBBQTvoT-45" value="Android和IOS日志" style="ellipse;whiteSpace=wrap;html=1;" vertex="1" parent="1">
          <mxGeometry x="290" y="-70" width="80" height="60" as="geometry" />
        </mxCell>
        <mxCell id="q8u4ROkR2KheRBBQTvoT-46" value="web端和h5小程序日志" style="ellipse;whiteSpace=wrap;html=1;" vertex="1" parent="1">
          <mxGeometry x="330" y="10" width="80" height="60" as="geometry" />
        </mxCell>
        <mxCell id="q8u4ROkR2KheRBBQTvoT-47" value="服务端日志" style="ellipse;whiteSpace=wrap;html=1;" vertex="1" parent="1">
          <mxGeometry x="290" y="90" width="80" height="60" as="geometry" />
        </mxCell>
        <mxCell id="q8u4ROkR2KheRBBQTvoT-48" value="Extends" style="endArrow=block;endSize=16;endFill=0;html=1;entryX=1;entryY=0.5;entryDx=0;entryDy=0;exitX=0;exitY=0.5;exitDx=0;exitDy=0;" edge="1" parent="1" source="q8u4ROkR2KheRBBQTvoT-46" target="q8u4ROkR2KheRBBQTvoT-42">
          <mxGeometry width="160" relative="1" as="geometry">
            <mxPoint x="311.7157287525381" y="-8.78679656440363" as="sourcePoint" />
            <mxPoint x="250" y="40" as="targetPoint" />
          </mxGeometry>
        </mxCell>
        <mxCell id="q8u4ROkR2KheRBBQTvoT-49" value="Extends" style="endArrow=block;endSize=16;endFill=0;html=1;entryX=1;entryY=0.5;entryDx=0;entryDy=0;" edge="1" parent="1" source="q8u4ROkR2KheRBBQTvoT-47" target="q8u4ROkR2KheRBBQTvoT-42">
          <mxGeometry width="160" relative="1" as="geometry">
            <mxPoint x="321.7157287525381" y="1.2132034355963697" as="sourcePoint" />
            <mxPoint x="240" y="40" as="targetPoint" />
          </mxGeometry>
        </mxCell>
        <mxCell id="q8u4ROkR2KheRBBQTvoT-50" value="发送埋点到消息队列" style="ellipse;whiteSpace=wrap;html=1;" vertex="1" parent="1">
          <mxGeometry x="180" y="340" width="80" height="60" as="geometry" />
        </mxCell>
        <mxCell id="q8u4ROkR2KheRBBQTvoT-54" style="rounded=0;orthogonalLoop=1;jettySize=auto;html=1;exitX=1;exitY=1;exitDx=0;exitDy=0;exitPerimeter=0;entryX=0.213;entryY=0;entryDx=0;entryDy=0;entryPerimeter=0;" edge="1" parent="1" source="q8u4ROkR2KheRBBQTvoT-41" target="q8u4ROkR2KheRBBQTvoT-50">
          <mxGeometry relative="1" as="geometry">
            <mxPoint x="160" y="230" as="sourcePoint" />
            <mxPoint x="220" y="230" as="targetPoint" />
          </mxGeometry>
        </mxCell>
        <mxCell id="q8u4ROkR2KheRBBQTvoT-56" value="埋点验证" style="shape=umlFrame;whiteSpace=wrap;html=1;" vertex="1" parent="1">
          <mxGeometry x="480" y="140" width="280" height="410" as="geometry" />
        </mxCell>
        <mxCell id="q8u4ROkR2KheRBBQTvoT-74" value="" style="edgeStyle=none;rounded=0;orthogonalLoop=1;jettySize=auto;html=1;" edge="1" parent="1" source="q8u4ROkR2KheRBBQTvoT-57" target="q8u4ROkR2KheRBBQTvoT-73">
          <mxGeometry relative="1" as="geometry" />
        </mxCell>
        <mxCell id="q8u4ROkR2KheRBBQTvoT-57" value="消费埋点数据" style="ellipse;whiteSpace=wrap;html=1;" vertex="1" parent="1">
          <mxGeometry x="550" y="413" width="80" height="60" as="geometry" />
        </mxCell>
        <mxCell id="q8u4ROkR2KheRBBQTvoT-61" value="消息队列" style="shape=umlActor;verticalLabelPosition=bottom;verticalAlign=top;html=1;" vertex="1" parent="1">
          <mxGeometry x="390" y="420" width="30" height="60" as="geometry" />
        </mxCell>
        <mxCell id="q8u4ROkR2KheRBBQTvoT-62" style="rounded=0;orthogonalLoop=1;jettySize=auto;html=1;exitX=1;exitY=1;exitDx=0;exitDy=0;" edge="1" parent="1" source="q8u4ROkR2KheRBBQTvoT-50" target="q8u4ROkR2KheRBBQTvoT-61">
          <mxGeometry relative="1" as="geometry">
            <mxPoint x="212.96" y="430" as="sourcePoint" />
            <mxPoint x="390" y="560" as="targetPoint" />
          </mxGeometry>
        </mxCell>
        <mxCell id="q8u4ROkR2KheRBBQTvoT-63" style="rounded=0;orthogonalLoop=1;jettySize=auto;html=1;exitX=1;exitY=0.3333333333333333;exitDx=0;exitDy=0;exitPerimeter=0;" edge="1" parent="1" source="q8u4ROkR2KheRBBQTvoT-61" target="q8u4ROkR2KheRBBQTvoT-57">
          <mxGeometry relative="1" as="geometry">
            <mxPoint x="388.2842712474619" y="441.21320343559637" as="sourcePoint" />
            <mxPoint x="430" y="491.80748143133246" as="targetPoint" />
          </mxGeometry>
        </mxCell>
        <mxCell id="q8u4ROkR2KheRBBQTvoT-78" style="edgeStyle=none;rounded=0;orthogonalLoop=1;jettySize=auto;html=1;entryX=0;entryY=0.3333333333333333;entryDx=0;entryDy=0;entryPerimeter=0;" edge="1" parent="1" source="q8u4ROkR2KheRBBQTvoT-67" target="q8u4ROkR2KheRBBQTvoT-73">
          <mxGeometry relative="1" as="geometry" />
        </mxCell>
        <mxCell id="q8u4ROkR2KheRBBQTvoT-67" value="验证任务" style="ellipse;whiteSpace=wrap;html=1;" vertex="1" parent="1">
          <mxGeometry x="320" y="220" width="80" height="60" as="geometry" />
        </mxCell>
        <mxCell id="q8u4ROkR2KheRBBQTvoT-68" value="前端展示" style="ellipse;whiteSpace=wrap;html=1;" vertex="1" parent="1">
          <mxGeometry x="630" y="180" width="80" height="60" as="geometry" />
        </mxCell>
        <mxCell id="q8u4ROkR2KheRBBQTvoT-77" style="edgeStyle=none;rounded=0;orthogonalLoop=1;jettySize=auto;html=1;exitX=0;exitY=0;exitDx=0;exitDy=0;entryX=1;entryY=0.3333333333333333;entryDx=0;entryDy=0;entryPerimeter=0;" edge="1" parent="1" source="q8u4ROkR2KheRBBQTvoT-70" target="q8u4ROkR2KheRBBQTvoT-73">
          <mxGeometry relative="1" as="geometry" />
        </mxCell>
        <mxCell id="q8u4ROkR2KheRBBQTvoT-70" value="验证规则" style="ellipse;whiteSpace=wrap;html=1;" vertex="1" parent="1">
          <mxGeometry x="660" y="320" width="80" height="60" as="geometry" />
        </mxCell>
        <mxCell id="q8u4ROkR2KheRBBQTvoT-79" style="edgeStyle=none;rounded=0;orthogonalLoop=1;jettySize=auto;html=1;exitX=0.5;exitY=0;exitDx=0;exitDy=0;exitPerimeter=0;entryX=0.5;entryY=1;entryDx=0;entryDy=0;" edge="1" parent="1" source="q8u4ROkR2KheRBBQTvoT-73" target="q8u4ROkR2KheRBBQTvoT-68">
          <mxGeometry relative="1" as="geometry" />
        </mxCell>
        <mxCell id="q8u4ROkR2KheRBBQTvoT-73" value="验证引擎" style="shape=umlActor;verticalLabelPosition=bottom;verticalAlign=top;html=1;" vertex="1" parent="1">
          <mxGeometry x="575" y="280" width="30" height="60" as="geometry" />
        </mxCell>
        <mxCell id="q8u4ROkR2KheRBBQTvoT-76" value="" style="edgeStyle=none;rounded=0;orthogonalLoop=1;jettySize=auto;html=1;" edge="1" parent="1" source="q8u4ROkR2KheRBBQTvoT-75" target="q8u4ROkR2KheRBBQTvoT-70">
          <mxGeometry relative="1" as="geometry" />
        </mxCell>
        <mxCell id="q8u4ROkR2KheRBBQTvoT-75" value="埋点管理" style="shape=umlActor;verticalLabelPosition=bottom;verticalAlign=top;html=1;" vertex="1" parent="1">
          <mxGeometry x="685" y="440" width="30" height="60" as="geometry" />
        </mxCell>
        <mxCell id="q8u4ROkR2KheRBBQTvoT-90" value="" style="edgeStyle=none;rounded=0;orthogonalLoop=1;jettySize=auto;html=1;" edge="1" parent="1" source="q8u4ROkR2KheRBBQTvoT-83" target="q8u4ROkR2KheRBBQTvoT-88">
          <mxGeometry relative="1" as="geometry" />
        </mxCell>
        <mxCell id="q8u4ROkR2KheRBBQTvoT-83" value="DA" style="shape=umlActor;verticalLabelPosition=bottom;verticalAlign=top;html=1;" vertex="1" parent="1">
          <mxGeometry x="555" y="-20" width="30" height="60" as="geometry" />
        </mxCell>
        <mxCell id="q8u4ROkR2KheRBBQTvoT-91" value="" style="edgeStyle=none;rounded=0;orthogonalLoop=1;jettySize=auto;html=1;" edge="1" parent="1" source="q8u4ROkR2KheRBBQTvoT-88" target="q8u4ROkR2KheRBBQTvoT-56">
          <mxGeometry relative="1" as="geometry" />
        </mxCell>
        <mxCell id="q8u4ROkR2KheRBBQTvoT-88" value="验收数据" style="ellipse;whiteSpace=wrap;html=1;" vertex="1" parent="1">
          <mxGeometry x="450" y="50" width="80" height="60" as="geometry" />
        </mxCell>
        <mxCell id="q8u4ROkR2KheRBBQTvoT-92" value="" style="edgeStyle=none;rounded=0;orthogonalLoop=1;jettySize=auto;html=1;" edge="1" parent="1" source="q8u4ROkR2KheRBBQTvoT-93" target="q8u4ROkR2KheRBBQTvoT-94">
          <mxGeometry relative="1" as="geometry" />
        </mxCell>
        <mxCell id="q8u4ROkR2KheRBBQTvoT-93" value="QA" style="shape=umlActor;verticalLabelPosition=bottom;verticalAlign=top;html=1;" vertex="1" parent="1">
          <mxGeometry x="715" y="-20" width="30" height="60" as="geometry" />
        </mxCell>
        <mxCell id="q8u4ROkR2KheRBBQTvoT-96" style="edgeStyle=none;rounded=0;orthogonalLoop=1;jettySize=auto;html=1;exitX=1;exitY=1;exitDx=0;exitDy=0;entryX=0.821;entryY=0;entryDx=0;entryDy=0;entryPerimeter=0;" edge="1" parent="1" source="q8u4ROkR2KheRBBQTvoT-94" target="q8u4ROkR2KheRBBQTvoT-56">
          <mxGeometry relative="1" as="geometry" />
        </mxCell>
        <mxCell id="q8u4ROkR2KheRBBQTvoT-94" value="数据复测" style="ellipse;whiteSpace=wrap;html=1;" vertex="1" parent="1">
          <mxGeometry x="610" y="50" width="80" height="60" as="geometry" />
        </mxCell>
      </root>
    </mxGraphModel>
  </diagram>
</mxfile>
